<?xml version="1.0" standalone="no"?>
<!DOCTYPE svg PUBLIC "-//W3C//DTD SVG 20010904//EN"
 "http://www.w3.org/TR/2001/REC-SVG-20010904/DTD/svg10.dtd">
<svg version="1.0" xmlns="http://www.w3.org/2000/svg"
 width="512.000000pt" height="512.000000pt" viewBox="0 0 512.000000 512.000000"
 preserveAspectRatio="xMidYMid meet">

<g transform="translate(0.000000,512.000000) scale(0.100000,-0.100000)"
fill="#000000" stroke="none">
<path d="M2315 5109 c-800 -83 -1501 -518 -1927 -1196 -487 -774 -516 -1777
-75 -2578 200 -364 487 -676 841 -913 238 -159 600 -311 876 -366 214 -43 295
-51 530 -51 236 0 333 10 532 51 880 184 1615 842 1898 1702 92 278 125 491
125 802 0 301 -32 513 -116 775 -124 390 -330 728 -622 1024 -399 404 -893
653 -1462 737 -123 18 -478 26 -600 13z m695 -739 l0 -150 -450 0 -450 0 0
150 0 150 450 0 450 0 0 -150z m600 -610 l0 -150 -1050 0 -1050 0 0 150 0 150
1050 0 1050 0 0 -150z m-2640 -1050 l0 -600 150 0 150 0 0 -150 0 -150 -300 0
-300 0 0 750 0 750 150 0 150 0 0 -600z m949 581 c155 -48 268 -171 306 -333
21 -91 21 -705 0 -796 -53 -224 -240 -364 -469 -350 -182 12 -331 123 -393
295 -23 63 -23 70 -23 453 0 383 0 390 23 453 51 141 175 253 314 286 67 16
177 12 242 -8z m1087 5 c107 -28 204 -100 266 -196 33 -52 68 -157 68 -206 l0
-34 -150 0 c-149 0 -150 0 -150 23 0 32 -35 84 -72 108 -26 15 -45 19 -86 16
-61 -4 -96 -27 -123 -77 -17 -32 -19 -63 -19 -370 0 -307 2 -338 19 -370 27
-50 62 -73 123 -77 62 -5 106 17 138 69 16 27 20 51 20 131 l0 97 -75 0 -75 0
0 150 0 150 225 0 225 0 0 -259 c0 -286 -8 -337 -68 -431 -213 -331 -719 -253
-816 126 -23 90 -23 741 0 829 61 237 314 384 550 321z m1123 -5 c114 -35 214
-119 267 -223 48 -95 54 -147 54 -508 0 -361 -6 -413 -54 -508 -129 -251 -461
-320 -686 -142 -55 44 -110 122 -137 197 -23 63 -23 70 -23 453 0 383 0 390
23 453 51 141 175 253 314 286 67 16 177 12 242 -8z m-519 -1931 l0 -150
-1050 0 -1050 0 0 150 0 150 1050 0 1050 0 0 -150z m-600 -610 l0 -150 -450 0
-450 0 0 150 0 150 450 0 450 0 0 -150z"/>
<path d="M1725 2998 c-48 -26 -74 -62 -85 -114 -7 -35 -10 -161 -8 -356 3
-284 4 -305 24 -338 62 -107 205 -107 261 0 23 42 23 49 23 370 0 321 0 328
-23 370 -13 25 -37 51 -57 61 -38 21 -104 24 -135 7z"/>
<path d="M3925 2991 c-45 -27 -63 -52 -74 -101 -14 -59 -14 -601 0 -660 32
-139 210 -165 276 -40 23 42 23 49 23 370 0 321 0 328 -23 370 -39 74 -135
103 -202 61z"/>
</g>
</svg>
